<svg width="18" height="19" viewBox="0 0 18 19" fill="none" xmlns="http://www.w3.org/2000/svg">
<path d="M1.67776 9.90792C1.68616 9.90455 1.69476 9.90263 1.70296 9.89854C1.72096 9.88963 1.73756 9.8776 1.75396 9.8658C1.75976 9.86171 1.76616 9.85882 1.77176 9.85425C1.79356 9.83668 1.81396 9.8167 1.83256 9.79432L3.40378 7.90342C3.55998 7.71544 3.55998 7.41072 3.40378 7.22274C3.24778 7.03476 2.99417 7.03476 2.83817 7.22274L2.02717 8.19876C2.53297 4.10985 5.4692 0.962775 9.00543 0.962775C11.7491 0.962775 14.2651 2.90084 15.4157 5.89989C15.5083 6.14155 15.7463 6.24625 15.9463 6.13529C16.1469 6.02385 16.2343 5.7379 16.1419 5.49649C14.8611 2.15734 12.0601 0 9.00543 0C5.10219 0 1.85616 3.44385 1.25176 7.93929L0.741753 6.93054C0.626952 6.70357 0.381149 6.63112 0.192147 6.76952C0.00334552 6.90767 -0.0564551 7.20397 0.0583461 7.43094L1.20776 9.70454C1.20916 9.70743 1.21136 9.70959 1.21296 9.71248C1.22516 9.73559 1.23936 9.75701 1.25476 9.77723C1.25856 9.78204 1.26136 9.78782 1.26536 9.79263C1.28496 9.81646 1.30676 9.83764 1.33016 9.85641C1.33636 9.86147 1.34336 9.86484 1.34976 9.86917C1.36756 9.88169 1.38596 9.89324 1.40536 9.90239C1.41456 9.90672 1.42416 9.90937 1.43356 9.91298C1.45136 9.91948 1.46936 9.92501 1.48796 9.92838C1.49276 9.92935 1.49696 9.93175 1.50176 9.93223C1.51776 9.9344 1.53356 9.9356 1.54936 9.9356C1.57596 9.9356 1.60236 9.93223 1.62816 9.92597C1.64556 9.92188 1.66156 9.91466 1.67776 9.90792Z" fill="#0E57D6"/>
<path d="M17.9417 11.4777L16.7921 9.20391C16.7905 9.20102 16.7882 9.19861 16.7868 9.19572C16.7748 9.1731 16.7609 9.15216 16.7459 9.13242C16.7419 9.12712 16.7386 9.12087 16.7344 9.11581C16.7148 9.09198 16.693 9.0708 16.6696 9.05227C16.6632 9.04721 16.6562 9.04384 16.6496 9.03927C16.6318 9.02676 16.6136 9.01544 16.5942 9.0063C16.5848 9.00196 16.575 8.99908 16.5654 8.99547C16.548 8.98921 16.5304 8.98367 16.5122 8.9803C16.5072 8.97934 16.5028 8.97693 16.4978 8.97621C16.4908 8.97525 16.484 8.97669 16.477 8.97597C16.4678 8.97525 16.4592 8.97284 16.4502 8.97284C16.442 8.97284 16.4344 8.97525 16.4264 8.97573C16.414 8.97669 16.4018 8.97789 16.3894 8.9803C16.3728 8.98343 16.3566 8.988 16.3408 8.99354C16.3298 8.99739 16.3188 9.00076 16.308 9.00581C16.2908 9.01376 16.2746 9.02363 16.2586 9.03422C16.2502 9.03975 16.2414 9.04457 16.2332 9.05082C16.2094 9.06936 16.187 9.0903 16.167 9.11437L14.5958 11.0053C14.4396 11.1932 14.4396 11.498 14.5958 11.6859C14.752 11.8739 15.0052 11.8739 15.1614 11.6859L15.9724 10.7099C15.4666 14.7988 12.5304 17.9459 8.99417 17.9459C6.15175 17.9459 3.59972 15.9101 2.49251 12.7594C2.40651 12.5144 2.17191 12.4003 1.9683 12.5038C1.7649 12.6073 1.6697 12.8897 1.7559 13.1347C2.98851 16.6423 5.82974 18.9087 8.99437 18.9087C12.8974 18.9087 16.1436 15.4648 16.748 10.9699L17.2581 11.9789C17.3335 12.1276 17.4653 12.2099 17.6003 12.2099C17.6711 12.2099 17.7429 12.1873 17.8079 12.1399C17.9965 12.0013 18.0565 11.705 17.9417 11.4777Z" fill="#0E57D6"/>
</svg>
