<svg width="20" height="18" viewBox="0 0 20 18" fill="none" xmlns="http://www.w3.org/2000/svg">
<path d="M11.714 4.61202H5.46196H2.97595L5.49396 2.10203C5.62396 1.96403 5.68796 1.80603 5.68796 1.62203C5.68796 1.43203 5.62596 1.28203 5.49196 1.14803C5.35996 1.01603 5.20396 0.952026 5.01796 0.952026C4.82596 0.952026 4.66996 1.01403 4.54196 1.14403L0.881942 4.80402C0.751942 4.93402 0.689941 5.09002 0.689941 5.28202V5.28602C0.689941 5.47602 0.753942 5.63202 0.881942 5.76202L4.53996 9.41802C4.67796 9.55002 4.83596 9.61202 5.01996 9.61202C5.20596 9.61202 5.35996 9.54802 5.49196 9.41802L5.49396 9.41602L5.49796 9.41202C5.62796 9.28202 5.69196 9.12802 5.69196 8.94202C5.69196 8.75802 5.62796 8.60202 5.49796 8.46202L2.97595 5.95202H5.46196H5.47596H11.728H12.348C12.534 5.95202 12.69 5.88802 12.822 5.75602C12.954 5.62402 13.018 5.46802 13.018 5.28202C13.018 5.09602 12.954 4.94002 12.822 4.80802C12.69 4.67602 12.534 4.61202 12.348 4.61202H11.728H11.714Z" fill="#0E57D6"/>
<path d="M2.97596 5.95203L5.49396 8.46203C5.62396 8.60003 5.68796 8.75803 5.68796 8.94203C5.68796 9.12803 5.62396 9.28203 5.49396 9.41203L5.48996 9.41603L5.48796 9.41803C5.35796 9.54803 5.20196 9.61203 5.01596 9.61203C4.83196 9.61203 4.67596 9.54803 4.53596 9.41803L0.881952 5.76003C0.751952 5.63003 0.689952 5.47403 0.689952 5.28403V5.28003C0.689952 5.08803 0.753952 4.93203 0.881952 4.80203L4.54196 1.14204C4.67196 1.01204 4.82796 0.950036 5.01796 0.950036C5.20596 0.950036 5.35996 1.01404 5.49196 1.14604C5.62596 1.28004 5.68796 1.43004 5.68796 1.62004C5.68796 1.80404 5.62396 1.96204 5.49396 2.10003L2.97596 4.61203H5.46196V4.12203H4.16196L5.84396 2.44603L5.84596 2.44403L5.84796 2.44203C6.06796 2.21203 6.17996 1.93604 6.17996 1.62204C6.17996 1.30204 6.06596 1.02604 5.83996 0.802036C5.61396 0.576036 5.33796 0.462036 5.01996 0.462036C4.69596 0.462036 4.41996 0.574036 4.19596 0.798036L0.535952 4.45803C0.311951 4.68003 0.199951 4.95803 0.199951 5.28003V5.28203C0.199951 5.60603 0.311951 5.88203 0.535952 6.10603L4.19596 9.76603L4.19996 9.77003C4.43196 9.99003 4.70596 10.102 5.01796 10.102C5.33596 10.102 5.61196 9.98803 5.83596 9.76403L5.83796 9.76203L5.84196 9.75803C6.06596 9.53403 6.17796 9.26003 6.17796 8.94203C6.17796 8.63003 6.06596 8.35403 5.84596 8.12203L5.84396 8.12003L4.15996 6.44203H5.45996V5.95203H2.97596Z" fill="#0E57D6"/>
<path d="M13.17 4.46006C12.944 4.23406 12.668 4.12006 12.35 4.12006H11.73V4.61006H12.35C12.536 4.61006 12.692 4.67406 12.824 4.80606C12.956 4.94006 13.022 5.09406 13.022 5.28006C13.022 5.46606 12.958 5.62207 12.826 5.75407C12.694 5.88607 12.538 5.95007 12.352 5.95007H11.732V6.44007H12.352C12.67 6.44007 12.946 6.32607 13.172 6.10007C13.398 5.87407 13.512 5.59807 13.512 5.28006C13.51 4.96406 13.396 4.68806 13.17 4.46006Z" fill="#0E57D6"/>
<path d="M5.46191 4.61201H11.7119H11.7279V4.12201H5.47591H5.46191V4.61201Z" fill="#0E57D6"/>
<path d="M11.7298 5.95203H5.47787H5.46387V6.44203H11.7138H11.7298V5.95203Z" fill="#0E57D6"/>
<path d="M8.28598 13.388H14.536H17.022L14.504 15.898C14.374 16.036 14.31 16.194 14.31 16.378C14.31 16.568 14.372 16.718 14.506 16.852C14.638 16.984 14.794 17.048 14.98 17.048C15.172 17.048 15.328 16.986 15.456 16.856L19.116 13.196C19.246 13.066 19.308 12.91 19.308 12.718V12.714C19.308 12.524 19.244 12.368 19.116 12.238L15.46 8.582C15.322 8.45 15.164 8.388 14.98 8.388C14.794 8.388 14.64 8.452 14.508 8.582L14.506 8.584L14.502 8.588C14.372 8.718 14.308 8.872 14.308 9.058C14.308 9.242 14.372 9.398 14.502 9.538L17.02 12.048H14.538H14.524H8.26998H7.64998C7.46398 12.048 7.30798 12.112 7.17598 12.244C7.04398 12.376 6.97998 12.532 6.97998 12.718C6.97998 12.904 7.04398 13.06 7.17798 13.192C7.30998 13.324 7.46598 13.388 7.65198 13.388H8.27198H8.28598Z" fill="#0E57D6"/>
<path d="M17.0241 12.0481L14.5041 9.53807C14.3741 9.40007 14.3101 9.24207 14.3101 9.05807C14.3101 8.87207 14.3741 8.71807 14.5041 8.58807L14.5081 8.58407L14.5101 8.58207C14.6401 8.45207 14.7961 8.38807 14.9821 8.38807C15.1661 8.38807 15.3221 8.45207 15.4621 8.58207L19.1181 12.2401C19.2481 12.3701 19.3101 12.5261 19.3101 12.7161V12.7201C19.3101 12.9121 19.2461 13.0681 19.1181 13.1981L15.4581 16.858C15.3281 16.988 15.1721 17.05 14.9821 17.05C14.7941 17.05 14.6401 16.986 14.5081 16.854C14.3741 16.72 14.3121 16.57 14.3121 16.38C14.3121 16.196 14.3761 16.038 14.5061 15.9L17.0241 13.3901H14.5381V13.8801H15.8381L14.1561 15.556L14.1541 15.558L14.1521 15.56C13.9321 15.79 13.8201 16.066 13.8201 16.38C13.8201 16.7 13.9341 16.976 14.1601 17.2C14.3861 17.426 14.6621 17.54 14.9801 17.54C15.3041 17.54 15.5801 17.426 15.8041 17.204L19.4641 13.5441C19.6861 13.3201 19.8001 13.0441 19.8001 12.7201V12.7181C19.8001 12.3941 19.6881 12.1181 19.4641 11.8941L15.8041 8.23407L15.8001 8.23007C15.5681 8.01007 15.2941 7.89807 14.9821 7.89807C14.6641 7.89807 14.3881 8.01207 14.1641 8.23607L14.1621 8.23807L14.1581 8.24207C13.9341 8.46407 13.8201 8.74007 13.8201 9.05807C13.8201 9.37007 13.9321 9.64607 14.1521 9.87807L14.1541 9.88006L15.8381 11.5581H14.5381V12.0481H17.0241Z" fill="#0E57D6"/>
<path d="M6.83003 13.5401C7.05603 13.7661 7.33202 13.8801 7.65002 13.8801H8.27001V13.3901H7.65002C7.46402 13.3901 7.30802 13.3261 7.17602 13.1941C7.04403 13.0601 6.97803 12.9061 6.97803 12.7201C6.97803 12.5341 7.04203 12.3781 7.17403 12.2461C7.30602 12.1141 7.46202 12.0501 7.64802 12.0501H8.26801V11.5601H7.64802C7.33002 11.5601 7.05403 11.6741 6.82803 11.9001C6.60204 12.1261 6.48804 12.4021 6.48804 12.7201C6.49004 13.0361 6.60404 13.3121 6.83003 13.5401Z" fill="#0E57D6"/>
<path d="M14.538 13.3881H8.28797H8.27197V13.878H14.524H14.538V13.3881Z" fill="#0E57D6"/>
<path d="M8.27002 12.048H14.522H14.536V11.558H8.28602H8.27002V12.048Z" fill="#0E57D6"/>
</svg>
