<svg width="12" height="7" viewBox="0 0 12 7" fill="none" xmlns="http://www.w3.org/2000/svg">
<path d="M1.28009 0.219999C1.13792 0.0875192 0.949869 0.015396 0.755568 0.0188242C0.561267 0.0222525 0.375882 0.100964 0.238469 0.238377C0.101056 0.37579 0.0223439 0.561176 0.0189157 0.755477C0.0154875 0.949778 0.0876107 1.13782 0.220091 1.28L5.22009 6.28C5.28974 6.34969 5.37244 6.40498 5.46347 6.4427C5.55449 6.48042 5.65206 6.49984 5.75059 6.49984C5.84912 6.49984 5.94669 6.48042 6.03771 6.4427C6.12874 6.40498 6.21144 6.34969 6.28109 6.28L11.2811 1.28C11.4176 1.13848 11.4932 0.948996 11.4914 0.752348C11.4896 0.5557 11.4106 0.367627 11.2715 0.228636C11.1323 0.0896452 10.9442 0.0108571 10.7475 0.00924165C10.5509 0.00762617 10.3615 0.0833125 10.2201 0.219999L5.75009 4.689L1.28009 0.219999Z" fill="black"/>
</svg>
